<svg fill="none" viewBox="0 0 815 231" height="231" width="815" xmlns="http://www.w3.org/2000/svg"><g clip-path="url(#clip0_7719_21801)"><path fill="currentColor" d="M766.568 167.998C766.389 167.792 766.061 167.763 765.852 167.939C760.633 172.229 755.295 174.051 749.957 173.375C743.634 172.552 738.713 168.556 736.984 166.029C729.856 155.832 727.41 138.671 729.528 115.985C743.306 118.013 757.233 119.071 771.22 119.071C771.519 119.071 771.727 118.836 771.727 118.571V97.7662C771.697 97.5017 771.459 97.2667 771.191 97.2667C758.247 97.2667 745.364 96.2675 732.63 94.3869C734.687 83.4848 737.52 71.7012 741.189 59.0948C741.278 58.8303 741.099 58.5365 740.831 58.4777L720.521 52.7181C720.253 52.63 719.955 52.8063 719.895 53.0708C716.018 66.353 713.036 78.7244 710.859 90.2729C699.705 87.687 688.73 84.3664 678.024 80.3406C680.231 62.0334 685.241 47.4875 693.084 36.9969C697.319 31.3254 707.041 24.7137 718.344 23.6264C728.693 22.6273 738.743 26.3887 748.197 34.7929C748.406 34.9692 748.734 34.9692 748.913 34.7929L764.331 18.1901C764.51 17.9844 764.51 17.6611 764.301 17.4554C746.02 1.17584 727.977 -0.88115 716.048 0.264887C696.126 2.17495 680.887 13.7529 673.908 23.0681C664.723 35.3513 658.549 51.2489 655.418 70.6727C651.631 68.8508 647.903 66.9408 644.205 64.9425L599.44 40.5231C599.202 40.3762 598.874 40.4643 598.755 40.7288L588.525 58.9479C588.376 59.183 588.466 59.5062 588.734 59.6237L633.498 84.0432C639.94 87.54 646.501 90.7724 653.181 93.7698C652.913 100.411 652.913 107.375 653.181 114.634C653.181 114.634 653.181 114.663 653.181 114.692C653.599 148.956 628.16 179.899 596.607 183.807C588.138 184.865 580.771 183.337 574.926 179.576C575.552 179.223 576.149 178.841 576.745 178.459C585.961 172.611 613.964 149.779 622.374 133.088C628.428 121.069 626.788 107.757 618.139 98.2658C608.328 87.54 592.104 84.5721 575.821 90.5667C548.115 100.764 531.772 133.117 538.602 164.236C538.811 165.206 539.049 166.176 539.318 167.116C539.407 167.41 539.198 167.704 538.9 167.733C530.878 169.056 522.736 168.938 516.086 166.734C513.461 165.853 510.986 164.707 508.689 163.296C508.839 163.032 508.958 162.767 509.107 162.532C525.867 130.531 535.59 89.7733 534.486 56.1562C534.277 49.3976 533.413 40.5819 528.611 32.589C522.676 22.6567 511.97 16.9559 501.472 18.1313C496.611 18.6603 491.81 20.6291 487.187 23.979C474.9 32.8829 469.621 46.841 466.699 56.597C458.348 84.4839 458.468 115.162 466.997 142.991C469.8 152.159 473.677 160.152 478.568 166.91C478.688 167.087 478.688 167.292 478.568 167.469C466.371 185.453 451.31 198.823 430.494 210.489C430.255 210.636 430.166 210.93 430.285 211.165L441.528 230.736C441.677 230.971 441.976 231.059 442.244 230.912C465.267 218.012 482.266 203.29 496.104 183.866C496.253 183.66 496.552 183.601 496.76 183.719C500.399 185.894 504.276 187.657 508.421 189.038C521.334 193.357 536.544 192.77 550.352 189.361C550.531 189.302 550.74 189.361 550.859 189.508C562.251 202.849 579.728 209.549 599.59 207.11C624.164 204.083 645.577 190.008 659.563 170.084C662.307 185.482 665.886 201.85 670.33 219.187C670.389 219.452 670.687 219.628 670.956 219.569L693.084 214.045C693.353 213.986 693.532 213.692 693.442 213.428C682.288 169.996 676.741 132.97 676.771 103.144C686.881 106.641 697.2 109.609 707.668 111.989C704.656 141.286 708.354 163.561 718.762 178.459C723.355 185.012 733.554 193.299 747.123 195.062C748.764 195.268 750.583 195.385 752.551 195.385C760.275 195.326 770.147 192.975 780.287 184.571C780.495 184.395 780.525 184.072 780.346 183.837L766.598 168.027L766.568 167.998ZM492.675 141.756C492.496 142.168 491.869 142.168 491.72 141.756C491.004 139.993 490.348 138.113 489.752 136.173C482.535 112.665 482.445 86.776 489.513 63.2382C490.617 59.5944 491.899 55.9799 493.599 52.5418C495.627 48.516 498.52 43.7261 502.904 41.8455C503.321 41.6692 503.709 41.581 504.097 41.581C505.677 41.5516 507.019 43.0797 507.825 44.2845C508.66 45.5481 509.167 47.0173 509.554 48.4572C510.27 51.2195 510.479 54.0993 510.568 56.9203C511.433 83.3967 504.663 114.957 492.675 141.756ZM561.983 159.829C561.953 159.652 561.893 159.476 561.864 159.329C557.539 139.699 567.53 118.748 584.112 112.665C587.094 111.548 589.748 111.107 592.015 111.078C595.981 111.048 598.814 112.371 600.365 114.075C602.423 116.309 602.632 119.394 600.961 122.685C595.921 132.706 573.226 152.747 563.772 158.741C563.206 159.123 562.579 159.476 561.953 159.829H561.983Z"></path><path fill="currentColor" d="M797.225 144.988C787.294 145.076 779.271 151.953 779.361 161.532C779.45 171.318 787.622 178.018 797.553 177.929C807.066 177.841 815.118 170.965 814.999 161.209C814.91 151.629 806.738 144.93 797.225 145.018V144.988Z"></path><path fill="currentColor" d="M0 114.633H40.7679V192.711H68.1155V114.633H108.883V89.156H0V114.633Z"></path><path fill="currentColor" d="M150.517 89.156H123.617V192.711H150.517V89.156Z"></path><path fill="currentColor" d="M294.262 86.2468C278.694 86.2468 266.318 94.945 259.578 105.289C253.077 93.6814 242.34 86.2468 228.89 86.2468C216.484 86.2468 206.404 92.4472 199.873 102.409V89.156H173.599V192.711H199.873V136.584C199.873 120.834 208.491 110.901 220.271 110.901C232.052 110.901 240.044 120.834 240.044 136.584V192.711H266.318V136.584C266.318 120.834 275.146 110.901 287.134 110.901C299.123 110.901 306.668 120.834 306.668 136.584V192.711H332.942V132.235C332.942 106.552 317.584 86.2468 294.262 86.2468Z"></path><path fill="currentColor" d="M137.156 47.4282C127.225 47.4282 119.143 54.2163 119.143 63.796C119.143 73.3757 127.254 80.3695 137.156 80.3695C147.057 80.3695 154.781 73.5814 154.781 63.796C154.781 54.0106 146.669 47.4282 137.156 47.4282Z"></path><path fill="currentColor" d="M443.138 169.261L423.365 156.537C420.204 161.68 415.194 166.058 408.692 168.82C396.316 174.051 385.222 170.613 377.319 159.77L445.315 131.03C443.257 124.242 440.692 118.336 437.889 113.428C422.709 86.9521 397.181 80.8399 374.366 90.4783C346.154 102.409 336.372 132.441 348.629 160.622C360.886 188.802 389.934 202.437 417.759 190.683C428.316 186.217 437.233 178.518 443.168 169.29L443.138 169.261ZM383.015 112.488C394.228 107.757 406.963 110.255 413.404 122.391L369.177 141.08C366.344 128.298 370.668 117.689 383.015 112.459V112.488Z"></path></g><defs><clipPath id="clip0_7719_21801"><rect fill="white" height="231" width="815"></rect></clipPath></defs></svg>